<?xml version="1.0" encoding="UTF-8"?>
<svg xmlns="http://www.w3.org/2000/svg" version="1.1" viewBox="0 0 64 64">
  <defs>
    <style>
      .cls-1 {
        fill: #fff;
        fill-rule: evenodd;
      }
    </style>
  </defs>
  <!-- Generator: Adobe Illustrator 28.6.0, SVG Export Plug-In . SVG Version: 1.2.0 Build 709)  -->
  <g>
    <g id="change_circle">
      <path id="circle" class="cls-1" d="M32,64C14.3,64,0,49.7,0,32S14.3,0,32,0s32,14.3,32,32-14.3,32-32,32ZM32,1C14.9,1,1,14.9,1,32s13.9,31,31,31,31-13.9,31-31h0c0-17.1-13.9-31-31-31Z"/>
      <path id="arrow" class="cls-1" d="M52,32c0,6.8-3.5,13.2-9.2,16.8l-.4-.9c8.8-5.7,11.3-17.5,5.5-26.3-3.5-5.4-9.5-8.6-15.9-8.6h-1.3l4.5,4.5-.7.7-5.2-5.2h-.3v-.3l-.2-.2.2-.2v-.3h.3l5.2-5.2.7.7-4.5,4.5h1.3c11,0,20,9,20,20ZM13,32c0,10.5,8.5,19,19,19h1.3l-4.5-4.5.7-.7,5.2,5.2h.3v.3l.2.2-.2.2v.3h-.3l-5.2,5.2-.7-.7,4.5-4.5h-1.3c-11,0-20-8.9-20-20,0-6.8,3.5-13.2,9.2-16.9l.4.9c-5.4,3.5-8.6,9.5-8.6,15.9Z"/>
    </g>
  </g>
</svg>