<svg xmlns="http://www.w3.org/2000/svg" width="24.344" height="27.906" viewBox="0 0 24.344 27.906">
  <defs>
    <style>
      .cls-1 {
        fill: #fff;
        fill-rule: evenodd;
      }
    </style>
  </defs>
  <path id="tiktok" class="cls-1" d="M91.315,837.026a4.042,4.042,0,0,1,3.045-7.461v-3.8h0V824.68a8.942,8.942,0,0,0-1.212-.083,8.833,8.833,0,0,0-4.921,16.171h0a8.838,8.838,0,0,0,13.757-7.339v-9.752a11.43,11.43,0,0,0,6.663,2.132v-4.779a6.672,6.672,0,0,1-3.538-1.01h0a6.69,6.69,0,0,1-3.052-4.514c-0.032-.183-0.056-0.365-0.073-0.549v-0.615H97.176V833.43a4.044,4.044,0,0,1-5.861,3.6" transform="translate(-84.313 -814.344)"/>
</svg>
