<svg xmlns="http://www.w3.org/2000/svg" width="325.031" height="82.094" viewBox="0 0 325.031 82.094">
  <defs>
    <style>
      .cls-1 {
        fill: #ff4040;
        fill-rule: evenodd;
      }
    </style>
  </defs>
  <path id="DIAGRAM" class="cls-1" d="M0.184,160.061v79.8H17.169c4.446,0,11.058-.8,16.074-6.27,4.56-5.015,5.13-10.829,5.13-16.3V182.063c0-3.42-.342-11.856-6.156-17.214-5.016-4.56-11.856-4.788-16.644-4.788H0.184Zm11.4,11.172H17.4c2.85,0,5.244,0,7.41,2.622a11.65,11.65,0,0,1,2.166,7.41v35.34c0,2.622-.228,6.726-2.622,9.348-2.28,2.394-5.244,2.736-7.638,2.736h-5.13V171.233Zm37.229-11.172v79.8h11.4v-79.8h-11.4Zm64.375,79.8-17.441-79.8H85.714l-17.442,79.8h11.4l3.762-17.1H98.026l3.762,17.1h11.4ZM96.658,212.615H84.574L90.5,182.291Zm56.917,27.245h5.7V196.313H138.186v10.26h9.69v10.716c0,2.85,0,6.726-2.052,9.348a8.79,8.79,0,0,1-6.612,3.191,8.061,8.061,0,0,1-6.384-2.849c-1.824-2.394-1.938-5.814-1.938-8.208V181.379c0-2.85,0-5.814,2.166-8.436a8.072,8.072,0,0,1,6.384-2.85,8.372,8.372,0,0,1,6.156,2.28,8.626,8.626,0,0,1,2.28,6.5v3.99h11.4v-3.192c0-7.41-2.736-12.54-5.814-15.618-3.192-3.192-8.207-5.13-14.135-5.13-4.332,0-11.514,1.14-16.074,7.524-3.534,4.9-3.762,9.8-3.762,14.592v40.356c0,3.648.456,9.347,4.1,13.907,3.762,4.674,8.55,5.7,12.654,5.7a18.435,18.435,0,0,0,8.892-1.938,13.417,13.417,0,0,0,5.471-5.358Zm17.068-79.8v79.8h11.4V205.433h6.726l11.058,34.427h11.856l-12.54-36.821a15.857,15.857,0,0,0,6.042-4.1c2.394-2.736,4.218-7.524,4.218-12.654v-6.042c0-5.928-1.6-10.716-4.218-13.908-5.358-6.612-13.794-6.27-19.608-6.27H170.643Zm11.4,10.26h5.928c2.394,0,5.13-.228,7.41,2.052a10.63,10.63,0,0,1,2.622,7.3v5.7c0,3.078-.114,5.016-2.394,7.182a9.643,9.643,0,0,1-7.068,2.622h-6.5V170.321Zm81.232,69.539-17.441-79.8H235.8l-17.442,79.8h11.4l3.762-17.1h14.592l3.762,17.1h11.4Zm-16.529-27.245H234.662l5.928-30.324Zm24.542,27.245h11.4V189.929h0.57l11.97,36.024h6.042l11.969-36.024h0.57V239.86h11.4v-79.8h-11.4l-14.933,44H298.42l-15.732-44h-11.4v79.8Z" transform="translate(-0.188 -158.906)"/>
</svg>
