<svg xmlns="http://www.w3.org/2000/svg" width="528.125" height="82.09" viewBox="0 0 528.125 82.09">
  <defs>
    <style>
      .cls-1 {
        fill: #ff4040;
        fill-rule: evenodd;
      }
    </style>
  </defs>
  <path id="INTRODUCTION" class="cls-1" d="M0.184,2024.06v79.8h11.4v-79.8H0.184Zm22.5,0v79.8h11.4V2053.7l19.038,50.16h11.4v-79.8h-11.4v50.16l-19.038-50.16h-11.4Zm51.1,0v10.83H87.921v68.97h11.4v-68.97h14.135v-10.83H73.785Zm48.161,0v79.8h11.4v-34.43h6.726l11.058,34.43h11.855l-12.539-36.82a15.879,15.879,0,0,0,6.041-4.11c2.394-2.73,4.218-7.52,4.218-12.65v-6.04c0-5.93-1.6-10.72-4.218-13.91-5.357-6.61-13.793-6.27-19.607-6.27H121.946Zm11.4,10.26h5.928c2.394,0,5.13-.23,7.41,2.05a10.652,10.652,0,0,1,2.622,7.3v5.7c0,3.08-.114,5.02-2.394,7.18a9.649,9.649,0,0,1-7.068,2.62h-6.5v-24.85Zm37.423,48.56c0,6.05.456,11.86,5.927,16.99a21.728,21.728,0,0,0,28.044,0c5.472-5.13,5.928-10.94,5.928-16.99v-37.84c0-6.04-.456-11.86-5.928-16.99a21.728,21.728,0,0,0-28.044,0c-5.471,5.13-5.927,10.95-5.927,16.99v37.84Zm28.5,1.71c0,2.4-.228,4.79-2.394,6.96a9.451,9.451,0,0,1-12.312,0c-2.166-2.17-2.394-4.56-2.394-6.96v-41.26c0-2.4.228-4.79,2.394-6.96a9.451,9.451,0,0,1,12.312,0c2.166,2.17,2.394,4.56,2.394,6.96v41.26Zm22.585-60.53v79.8h16.986c4.446,0,11.058-.8,16.074-6.27,4.56-5.02,5.13-10.83,5.13-16.3v-35.23c0-3.42-.342-11.85-6.156-17.21-5.016-4.56-11.856-4.79-16.644-4.79h-15.39Zm11.4,11.17h5.814c2.85,0,5.244,0,7.41,2.63a11.649,11.649,0,0,1,2.166,7.41v35.33c0,2.63-.228,6.73-2.622,9.35-2.28,2.4-5.244,2.74-7.638,2.74h-5.13v-57.46Zm36.944-11.17v58.82c0,17.56,10.488,22.12,19.038,22.12s19.038-4.56,19.038-22.12v-58.82h-11.4v60.53c0,5.48-2.622,9.24-7.638,9.24s-7.638-3.76-7.638-9.24v-60.53H270.2Zm75.678,22.69h11.057v-5.47a18.972,18.972,0,0,0-5.13-13.23c-3.42-3.3-9-5.13-13.793-5.13a20.212,20.212,0,0,0-13,4.68c-5.13,4.44-5.814,10.37-5.814,15.61v41.38c0,4.11-.114,9.58,3.99,14.37,2.508,2.96,6.84,6.04,14.364,6.04,7.866,0,12.539-2.74,14.933-5.36,2.052-2.16,4.788-6.72,4.788-14.59v-3.31h-11.4v2.85c0,3.88-1.026,5.7-1.6,6.5a7.94,7.94,0,0,1-6.384,2.74,6.9,6.9,0,0,1-5.814-2.85c-1.482-2.05-1.482-4.45-1.482-7.07v-39.33c0-2.73.114-5.58,1.938-7.86a7.307,7.307,0,0,1,5.928-2.63,6.951,6.951,0,0,1,5.928,2.85,9.936,9.936,0,0,1,1.482,5.25v4.56Zm19.209-22.69v10.83h14.135v68.97h11.4v-68.97h14.136v-10.83H365.084Zm48.149,0v79.8h11.4v-79.8h-11.4Zm22.173,58.82c0,6.05.456,11.86,5.928,16.99a21.727,21.727,0,0,0,28.043,0c5.472-5.13,5.928-10.94,5.928-16.99v-37.84c0-6.04-.456-11.86-5.928-16.99a21.727,21.727,0,0,0-28.043,0c-5.472,5.13-5.928,10.95-5.928,16.99v37.84Zm28.5,1.71c0,2.4-.228,4.79-2.394,6.96a9.451,9.451,0,0,1-12.312,0c-2.166-2.17-2.394-4.56-2.394-6.96v-41.26c0-2.4.228-4.79,2.394-6.96a9.451,9.451,0,0,1,12.312,0c2.166,2.17,2.394,4.56,2.394,6.96v41.26Zm22.585-60.53v79.8h11.4V2053.7l19.037,50.16h11.4v-79.8h-11.4v50.16l-19.037-50.16h-11.4Z" transform="translate(-0.188 -2022.91)"/>
</svg>
