<svg xmlns="http://www.w3.org/2000/svg" width="223.969" height="82.094" viewBox="0 0 223.969 82.094">
  <defs>
    <style>
      .cls-1 {
        fill: #ff4040;
        fill-rule: evenodd;
      }
    </style>
  </defs>
  <path id="MUSIC" class="cls-1" d="M0.184,239.86h11.4V189.929h0.57l11.97,36.024h6.042l11.97-36.024H42.7V239.86H54.1v-79.8H42.7l-14.934,44H27.315l-15.732-44H0.184v79.8Zm65.606-79.8v58.824C65.79,236.44,76.277,241,84.827,241s19.038-4.56,19.038-22.115V160.061h-11.4V220.6c0,5.472-2.622,9.233-7.638,9.233s-7.638-3.761-7.638-9.233V160.061H65.79Zm76.362,22.116h11.4v-2.622c0-13.224-7.638-20.634-19.038-20.634-5.244,0-10.032,1.254-13.794,4.9a20.232,20.232,0,0,0-5.928,14.82v2.28c0,3.99.114,7.98,1.71,11.628,2.28,5.358,6.384,7.41,10.488,8.892l8.322,2.964c1.254,0.456,3.99,1.482,5.472,3.534s1.824,5.472,1.824,8.208v2.964c0,2.394-.114,5.7-1.824,7.866-0.912,1.14-2.85,2.849-7.182,2.849a7.807,7.807,0,0,1-6.27-2.621c-1.6-2.052-1.824-5.244-1.824-7.068v-2.166h-11.4V220.6c0,1.026,0,8.55,3.648,13.451,2.622,3.648,7.866,6.954,15.96,6.954,6.612,0,11.856-2.166,14.82-5.244,3.306-3.42,5.472-9.575,5.472-17.669v-2.736c0-5.016-.342-9.576-3.42-13.794-2.964-4.1-6.954-5.586-10.374-6.84l-6.954-2.508c-1.71-.684-3.99-1.6-5.244-3.534-1.482-2.166-1.824-6.156-1.824-8.322,0-2.622.228-5.814,2.394-8.094a7.616,7.616,0,0,1,5.586-2.166,7.206,7.206,0,0,1,6.042,2.622c1.824,2.28,1.938,5.586,1.938,7.3v2.166Zm21.694-22.116v79.8h11.4v-79.8h-11.4Zm48.906,22.686h11.057v-5.472a18.964,18.964,0,0,0-5.13-13.224c-3.42-3.306-9-5.13-13.793-5.13a20.249,20.249,0,0,0-13,4.674c-5.13,4.446-5.814,10.374-5.814,15.618V220.6c0,4.1-.114,9.575,3.99,14.363,2.508,2.964,6.84,6.042,14.364,6.042,7.866,0,12.539-2.736,14.933-5.358,2.052-2.166,4.788-6.725,4.788-14.591v-3.306h-11.4v2.85c0,3.876-1.026,5.7-1.6,6.5a7.954,7.954,0,0,1-6.384,2.735,6.9,6.9,0,0,1-5.814-2.849c-1.482-2.052-1.482-4.446-1.482-7.068v-39.33c0-2.736.114-5.586,1.938-7.866a7.309,7.309,0,0,1,5.928-2.622,6.931,6.931,0,0,1,5.928,2.85,9.906,9.906,0,0,1,1.482,5.244v4.56Z" transform="translate(-0.188 -158.906)"/>
</svg>
