<svg xmlns="http://www.w3.org/2000/svg" width="463.344" height="104.219" viewBox="0 0 463.344 104.219">
  <defs>
    <style>
      .cls-1 {
        fill: #ff4040;
        fill-rule: evenodd;
      }
    </style>
  </defs>
  <path id="Blu-ray_DVD" data-name="Blu-ray&amp;DVD" class="cls-1" d="M0.184,160.061v79.8H17.511c6.84,0,11.058-1.824,13.566-3.762,6.84-5.13,6.84-13.337,6.84-16.643v-6.042c0-3.876,0-6.042-2.28-10.032a11.338,11.338,0,0,0-5.472-5.016,16.246,16.246,0,0,0,4.332-3.648c2.964-3.534,3.42-7.182,3.42-12.426,0-4.674-.114-13.224-7.3-18.354-5.016-3.534-11.628-3.876-15.048-3.876H0.184Zm11.4,10.26h5.358c3.762,0,6.042,1.254,7.41,2.622a8.406,8.406,0,0,1,2.166,5.472v4.9a11.137,11.137,0,0,1-2.166,6.84c-1.14,1.368-3.42,2.964-7.3,2.964H11.583v-22.8Zm0,33.06H17.4a8.662,8.662,0,0,1,6.042,2.052c2.508,2.166,3.078,4.9,3.078,8.778v3.762c0,1.368-.114,5.472-2.052,8.094a9.15,9.15,0,0,1-7.752,3.533h-5.13V203.381Zm35.7-43.32v64.3c0,3.306.114,7.295,2.85,10.715,3.534,4.446,9.006,4.788,11.628,4.788h3.306v-10.6h-1.14a5.46,5.46,0,0,1-3.648-1.139,5.6,5.6,0,0,1-1.6-4.332V160.061h-11.4Zm59.721,23.256h-11.4v38.76a7.523,7.523,0,0,1-1.824,5.472A6.472,6.472,0,0,1,89,229.6a4.958,4.958,0,0,1-3.648-1.481,6.752,6.752,0,0,1-1.368-4.788V183.317h-11.4v44.574c0,2.735.456,6.155,2.28,8.663,1.368,1.938,4.1,4.218,8.892,4.218a13.375,13.375,0,0,0,7.866-2.394,18.97,18.97,0,0,0,3.99-4.218v5.7h11.4V183.317Zm9.642,16.53v10.26h25.536v-10.26H116.651Zm35.054-16.53V239.86h11.4V207.485c0-12.426,9.69-13.794,15.162-12.882v-12.2a18.938,18.938,0,0,0-14.934,7.068l-0.228-.114v-6.042h-11.4Zm56.629,56.543h11.4V200.3c0-3.876-.57-9.234-4.674-13.338a17.377,17.377,0,0,0-12.2-4.56c-5.244,0-9.918,1.824-12.768,4.674a17.03,17.03,0,0,0-4.674,12.2h10.83a6.236,6.236,0,0,1,1.482-3.648,5.857,5.857,0,0,1,4.56-2.052,6.1,6.1,0,0,1,4.56,1.824,6.487,6.487,0,0,1,1.482,4.788v5.928a64.253,64.253,0,0,0-6.5-.342c-3.306,0-9.69.456-13.452,4.9-3.306,3.876-3.534,10.032-3.534,14.136,0,4.559.57,9.689,4.1,13a12.456,12.456,0,0,0,8.664,2.964,9.822,9.822,0,0,0,6.612-2.166,18.963,18.963,0,0,0,3.876-4.332h0.228v5.586Zm0-16.643c0,5.016-2.964,7.295-6.384,7.295a5.029,5.029,0,0,1-4.56-2.621,8.619,8.619,0,0,1-1.14-4.674c0-1.824.228-4.218,1.71-5.928,1.824-2.166,4.56-2.394,6.384-2.394a24.611,24.611,0,0,1,3.99.342v7.98Zm16.543-39.9,16.529,53.921-1.824,7.41c-0.912,3.648-1.6,4.9-2.052,5.472a6.111,6.111,0,0,1-5.358,2.394h-2.165l0.228,10.6H233.2c3.534,0,7.98-.228,11.4-3.534s4.446-8.778,5.244-12.084l15.5-64.181h-11.4l-7.068,35.112h-0.456l-9.234-35.112H224.877ZM311.2,207.6a39.2,39.2,0,0,1-1.482,5.358,13.83,13.83,0,0,1-2.394,4.9l-12.882-20.406a59.778,59.778,0,0,0,9.234-9.348,22.533,22.533,0,0,0,4.788-13.566c0-6.042-2.508-9.918-6.156-12.426a20.585,20.585,0,0,0-11.742-3.192c-4.217,0-9.119.684-13.109,4.674-3.42,3.306-4.674,7.3-4.674,12.2a26.442,26.442,0,0,0,3.762,14.136c1.368,2.508,3.192,5.244,4.446,7.068a45.83,45.83,0,0,0-9.348,9.462c-2.85,4.218-3.99,9.69-3.99,14.82A18.86,18.86,0,0,0,272.44,234.5c3.876,4.56,8.55,6.5,15.617,6.5a26.666,26.666,0,0,0,12.2-2.736,24.245,24.245,0,0,0,5.472-4.56l3.876,6.156h12.2l-8.55-13.451a22.76,22.76,0,0,0,4.674-7.524,54.1,54.1,0,0,0,2.736-8.664Zm-11.4,18.354a8.752,8.752,0,0,1-3.42,2.964,12.43,12.43,0,0,1-6.84,1.823c-3.077,0-6.269-.684-8.549-3.989a11.329,11.329,0,0,1-1.938-6.726,15.223,15.223,0,0,1,2.622-9.234,29.481,29.481,0,0,1,5.244-5.472Zm-11.856-38.532a20.309,20.309,0,0,1-4.217-11.742c0-1.6.114-4.1,2.051-5.928a6.811,6.811,0,0,1,4.9-1.824,6.6,6.6,0,0,1,4.9,1.824,7.367,7.367,0,0,1,1.938,5.358,13.9,13.9,0,0,1-1.482,6.042,23.215,23.215,0,0,1-6.384,8.55Zm41.5-27.36v79.8h16.986c4.446,0,11.058-.8,16.073-6.27,4.56-5.015,5.13-10.829,5.13-16.3V182.063c0-3.42-.342-11.856-6.156-17.214-5.015-4.56-11.855-4.788-16.643-4.788h-15.39Zm11.4,11.172h5.814c2.85,0,5.244,0,7.41,2.622a11.649,11.649,0,0,1,2.166,7.41v35.34c0,2.622-.228,6.726-2.622,9.348-2.28,2.394-5.244,2.736-7.638,2.736h-5.13V171.233Zm76.342-11.172h-11.97l-9.576,55.176h-0.456l-9.234-55.176h-12.54l16.872,79.8h10.032Zm8.152,0v79.8h16.986c4.446,0,11.058-.8,16.074-6.27,4.56-5.015,5.13-10.829,5.13-16.3V182.063c0-3.42-.342-11.856-6.156-17.214-5.016-4.56-11.856-4.788-16.644-4.788h-15.39Zm11.4,11.172h5.814c2.85,0,5.244,0,7.41,2.622a11.649,11.649,0,0,1,2.166,7.41v35.34c0,2.622-.228,6.726-2.622,9.348-2.28,2.394-5.244,2.736-7.638,2.736h-5.13V171.233Z" transform="translate(-0.188 -158.906)"/>
</svg>
