<svg xmlns="http://www.w3.org/2000/svg" width="295.781" height="82.094" viewBox="0 0 295.781 82.094">
  <defs>
    <style>
      .cls-1 {
        fill: #ff4040;
        fill-rule: evenodd;
      }
    </style>
  </defs>
  <path id="t-special.svg" class="cls-1" d="M26.517,182.177h11.4v-2.622c0-13.224-7.638-20.634-19.038-20.634-5.244,0-10.032,1.254-13.794,4.9a20.232,20.232,0,0,0-5.928,14.82v2.28c0,3.99.114,7.98,1.71,11.628,2.28,5.358,6.384,7.41,10.488,8.892l8.322,2.964c1.254,0.456,3.99,1.482,5.472,3.534s1.824,5.472,1.824,8.208v2.964c0,2.394-.114,5.7-1.824,7.866-0.912,1.14-2.85,2.849-7.182,2.849a7.807,7.807,0,0,1-6.27-2.621c-1.6-2.052-1.824-5.244-1.824-7.068v-2.166h-11.4V220.6c0,1.026,0,8.55,3.648,13.451C4.743,237.694,9.987,241,18.081,241c6.612,0,11.856-2.166,14.82-5.244,3.306-3.42,5.472-9.575,5.472-17.669v-2.736c0-5.016-.342-9.576-3.42-13.794-2.964-4.1-6.954-5.586-10.374-6.84l-6.954-2.508c-1.71-.684-3.99-1.6-5.244-3.534-1.482-2.166-1.824-6.156-1.824-8.322,0-2.622.228-5.814,2.394-8.094a7.616,7.616,0,0,1,5.586-2.166,7.206,7.206,0,0,1,6.042,2.622c1.824,2.28,1.938,5.586,1.938,7.3v2.166ZM48.211,239.86h11.4V208.283h6.726c4.9,0,11.058-.912,15.732-6.27,4.446-5.13,4.9-11.742,4.9-16.188v-2.28c0-5.928-.57-12.882-5.814-18.24-5.016-5.016-11.058-5.244-15.96-5.244H48.211v79.8Zm11.4-69.539H63.6c3.078,0,6.27-.114,8.892,2.052,3.192,2.622,3.078,6.5,3.078,9.234v5.244c0,2.85.228,5.586-2.166,8.208a9.819,9.819,0,0,1-7.638,2.964H59.611v-27.7ZM96.185,239.86h34.2V229.031h-22.8v-24.4h19.836v-10.26H107.585V170.891h22.458v-10.83H96.185v79.8Zm69.932-57.113h11.058v-5.472a18.964,18.964,0,0,0-5.13-13.224c-3.42-3.306-9.006-5.13-13.794-5.13a20.249,20.249,0,0,0-13,4.674c-5.13,4.446-5.814,10.374-5.814,15.618V220.6c0,4.1-.114,9.575,3.99,14.363,2.508,2.964,6.84,6.042,14.364,6.042,7.866,0,12.54-2.736,14.934-5.358,2.052-2.166,4.788-6.725,4.788-14.591v-3.306h-11.4v2.85c0,3.876-1.026,5.7-1.6,6.5a7.954,7.954,0,0,1-6.384,2.735,6.9,6.9,0,0,1-5.814-2.849c-1.482-2.052-1.482-4.446-1.482-7.068v-39.33c0-2.736.114-5.586,1.938-7.866a7.309,7.309,0,0,1,5.928-2.622,6.931,6.931,0,0,1,5.928,2.85,9.906,9.906,0,0,1,1.482,5.244v4.56Zm21.694-22.686v79.8h11.4v-79.8h-11.4Zm64.375,79.8-17.442-79.8H224.712l-17.441,79.8h11.4l3.762-17.1h14.592l3.762,17.1h11.4Zm-16.53-27.245H223.572l5.928-30.324ZM260.2,160.061v79.8h35.567V229.031H271.6v-68.97H260.2Z" transform="translate(0 -158.906)"/>
</svg>
