<svg xmlns="http://www.w3.org/2000/svg" width="231.5" height="80.938" viewBox="0 0 231.5 80.938">
  <defs>
    <style>
      .cls-1 {
        fill: #ff4040;
        fill-rule: evenodd;
      }
    </style>
  </defs>
  <path id="TIE-UP" class="cls-1" d="M-4.376,160.061v10.83H9.759V239.86h11.4V170.891H35.3v-10.83H-4.376Zm48.15,0v79.8h11.4v-79.8h-11.4Zm22.5,79.8h34.2V229.031h-22.8v-24.4H97.512v-10.26H77.676V170.891h22.458v-10.83H66.277v79.8Zm41.261-40.013v10.26h25.536v-10.26H107.537Zm35.67-39.786v58.824C143.207,236.44,153.7,241,162.244,241s19.038-4.56,19.038-22.115V160.061h-11.4V220.6c0,5.472-2.622,9.233-7.638,9.233s-7.637-3.761-7.637-9.233V160.061h-11.4Zm49.549,79.8h11.4V208.283h6.725c4.9,0,11.058-.912,15.732-6.27,4.446-5.13,4.9-11.742,4.9-16.188v-2.28c0-5.928-.57-12.882-5.814-18.24-5.016-5.016-11.058-5.244-15.96-5.244H192.756v79.8Zm11.4-69.539h3.989c3.078,0,6.27-.114,8.892,2.052,3.192,2.622,3.078,6.5,3.078,9.234v5.244c0,2.85.228,5.586-2.166,8.208a9.819,9.819,0,0,1-7.638,2.964h-6.155v-27.7Z" transform="translate(0 -160.062)"/>
</svg>
