<?xml version="1.0" encoding="UTF-8"?>
<svg id="_レイヤー_1" data-name="レイヤー 1" xmlns="http://www.w3.org/2000/svg" version="1.1" viewBox="0 0 503.8 503.8">
  <defs>
    <style>
      .cls-1 {
        fill: #fff;
        stroke-width: 0px;
      }
    </style>
  </defs>
  <g id="_レイヤー_2" data-name="レイヤー 2">
    <g id="Logo">
      <path class="cls-1" d="M251.9,45.4c67.3,0,75.2.3,101.8,1.5,24.6,1.1,37.9,5.2,46.8,8.7,11,4,20.9,10.5,29,18.8,8.4,8.1,14.8,18,18.9,29,3.5,8.9,7.5,22.2,8.7,46.8,1.2,26.6,1.5,34.5,1.5,101.8s-.3,75.2-1.5,101.8c-1.1,24.6-5.2,37.9-8.7,46.8-8.5,22-25.8,39.3-47.8,47.8-8.9,3.5-22.2,7.5-46.8,8.7-26.6,1.2-34.5,1.5-101.8,1.5s-75.2-.3-101.8-1.5c-24.6-1.1-37.9-5.2-46.8-8.7-11-4-20.9-10.5-29-18.9-8.4-8.1-14.8-18-18.8-29-3.5-8.9-7.5-22.2-8.7-46.8-1.2-26.6-1.5-34.5-1.5-101.8s.3-75.2,1.5-101.8c1.1-24.6,5.2-37.9,8.7-46.8,4-11,10.5-20.9,18.8-29,8.1-8.4,18-14.8,29-18.8,8.9-3.5,22.2-7.5,46.8-8.7,26.6-1.2,34.5-1.5,101.8-1.5M252,0C183.5,0,175,.2,148.1,1.5c-26.9,1.2-45.2,5.5-61.2,11.8-16.8,6.3-32,16.2-44.6,29-12.8,12.6-22.7,27.8-29,44.6-6.3,16-10.5,34.3-11.8,61.2-1.2,26.8-1.5,35.4-1.5,103.9s.3,77,1.5,103.9c1.2,26.9,5.5,45.1,11.7,61.1,6.3,16.8,16.2,32,29,44.6,12.6,12.8,27.8,22.7,44.6,29.1,16,6.2,34.3,10.5,61.2,11.7s35.4,1.5,103.9,1.5,77-.3,103.9-1.5,45.1-5.5,61.1-11.7c33.8-13.1,60.6-39.8,73.7-73.7,6.2-16,10.5-34.3,11.7-61.1s1.5-35.5,1.5-103.9-.3-77-1.5-103.9-5.5-45.1-11.7-61.2c-6.3-16.8-16.2-32-29.1-44.6-12.6-12.8-27.8-22.7-44.6-29-16-6.3-34.3-10.5-61.1-11.8s-35.5-1.5-103.9-1.5h0Z"/>
      <path class="cls-1" d="M251.9,122.6c-71.4,0-129.4,57.9-129.4,129.4s57.9,129.4,129.4,129.4,129.4-57.9,129.4-129.4h0c0-71.4-57.9-129.4-129.3-129.4h0ZM251.9,335.9c-46.4,0-84-37.6-84-84s37.6-84,84-84,84,37.6,84,84h0c0,46.4-37.6,84-84,84Z"/>
      <circle class="cls-1" cx="386.4" cy="117.4" r="30.2"/>
    </g>
  </g>
</svg>