<?xml version="1.0" encoding="utf-8"?>
<!-- Generator: Adobe Illustrator 27.9.0, SVG Export Plug-In . SVG Version: 6.00 Build 0)  -->
<svg version="1.1" id="レイヤー_1" xmlns="http://www.w3.org/2000/svg" xmlns:xlink="http://www.w3.org/1999/xlink" x="0px"
	 y="0px" viewBox="0 0 532.0310059 234.375" style="enable-background:new 0 0 532.0310059 234.375;" xml:space="preserve">
<style type="text/css">
	.st0{fill-rule:evenodd;clip-rule:evenodd;}
</style>
<path id="logo.svg" class="st0" d="M57.6090088,95.8999939l-38.309021,105.2200012h42.5l38.309021-105.2200012H57.6090088z
	 M115.4490051,95.8999939l-8.9849854,24.6759949h-8.8640137l-11.7650146,32.3120117h8.8599854l-11.2529907,30.9060059h42.5
	l32-87.8939819h-42.5L115.4490051,95.8999939z M204.0999756,160.7789917H170.382019l3.5430298-9.730011h33.7219849
	l8.1569824-22.3999939h-33.7220459l3.5430298-9.7309875h33.7219849l8.3800049-23.0149841h-55.2749634l-11.5360107,8.45401
	l-5.2999878,14.5610046l-3.5429993,9.7309875l0,0l-8.1570129,22.3999939l0,0l-3.5440063,9.7299805l0,0l-8.3800049,23.0159912
	h63.7329712L204.0999756,160.7789917z M292.065979,134.5l2.4790039-6.8080139l0,0l3.2000122-8.7779846l3.5770264-9.8240051
	l4.7999878-13.1910095h-63.8930054l-11.5360107,8.45401l-5.2999878,14.5610046l-23.6220093,64.8789673h30.0100098
	l23.6190186-64.8769836h17.2369995l-1.927002,5.2929993l-20.4829712,15.0150146l4.5709839,44.5709839h25.2249756
	l-3.8590088-37.6329956L292.065979,134.5z M354.4060059,175.3380127l5.2999878-14.5609741l18.4940186-50.7850342
	l-8.9660034-14.0920105h-48.6069946l-11.5369873,8.45401l-5.2999878,14.5610046h41.1499634l-2.3259888,6.3880005
	l-12.9140015,35.4759827h-11.1439819l12.9169922-35.4790039h-30.0100098l-16.1690063,44.4069824l8.9609985,14.0839844h48.6149902
	L354.4060059,175.3380127z M72.7510071,54.3129883L62.4230042,82.6779785l5.723999,9h54.2449951l7.368988-5.3999939
	l3.3859863-9.2999878l11.8120117-32.4400024l-5.7269897-9H84.9920044l-7.368988,5.3999939L74.23703,50.2379761h39.7000122
	l-1.4849854,4.0809937l-8.2520447,22.6530151h-10.75l8.2510071-22.6589966H72.7510071z M532.0240479,0.7129822h-14.4750366
	L369.5,199.723999h14.473999L407.9450073,167.5l6.7579956,32.2210083h60.184021l-20.3649902-94.8320007L532.0240479,0.7129822z
	 M470.31604,35.3629761l-23.8430176,32.052002l-6.8839722-32.052002h-60.184021l20.3660278,94.8309937l-77.5,104.1829834h14.473999
	L484.7910156,35.3590088H470.315979L470.31604,35.3629761z M133.8389893,91.6730042h58.5549927l7.3690186-5.3999939L206.0510254,69
	l-10.9879761-5.7590027l14.6469727-4.2909851l0,0l8.5280151-23.4219971h-63.9580383L133.8389893,91.6730042z M164.1689758,78.848999
	l5.5249939-15.1740112l14.5999756,7.651001l-2.7390137,7.5230103h-17.3859253H164.1689758z M192.657959,48.3559875
	l-2.4579468,6.7440186l-19.4609985,5.7000122l4.5310059-12.4450073h17.3859863L192.657959,48.3559875z M216.6669312,56.447998
	l-5.210022,14.3089905l0,0l-2.2630005,6.2149963l0,0l-5.3530273,14.7000122h61.4799805l5.3530273-14.7000122h-32.5308838
	l2.2639771-6.2149963h32.5300293l5.210022-14.3089905h-32.5299683l2.2630005-6.2160034h32.5299683l5.3530273-14.7000122h-56.078064
	l-7.3690186,5.3999939l-3.3859863,9.2999878l-2.2630005,6.2160034l0,0L216.6669312,56.447998z M42.5,120.7839966
	l32.5800171-89.480011h74.6910095l11.3999939-31.3179932H15.1369934L3.7369995,31.3039856h28.8500061L0,120.7839966H42.5z"/>
</svg>
