<svg xmlns="http://www.w3.org/2000/svg" viewBox="0 25.68000030517578 241.0399932861328 35.84000015258789" data-asc="1.220703125" width="241.0399932861328" height="35.84000015258789"><defs/><g fill="#ff4040"><g transform="translate(0, 0)"><path d="M5.86 61.04L0.24 61.04Q0 61.04 0 60.79L0.10 26.44Q0.10 26.25 0.29 26.25L9.91 26.25Q14.50 26.25 17.18 29.04Q19.85 31.84 19.85 36.65Q19.85 40.16 18.46 42.77Q17.04 45.36 14.79 46.78Q12.55 48.19 9.91 48.19L6.10 48.19L6.10 60.79Q6.10 61.04 5.86 61.04M9.91 32.18L6.10 32.23L6.10 42.14L9.91 42.14Q11.50 42.14 12.67 40.61Q13.84 39.09 13.84 36.65Q13.84 34.69 12.79 33.44Q11.74 32.18 9.91 32.18ZM39.18 61.04L23.02 61.04Q22.83 61.04 22.83 60.79L22.88 26.44Q22.88 26.25 23.07 26.25L39.14 26.25Q39.33 26.25 39.33 26.49L39.33 32.08Q39.33 32.28 39.14 32.28L28.88 32.28L28.88 40.09L39.14 40.09Q39.33 40.09 39.33 40.28L39.38 45.95Q39.38 46.14 39.18 46.14L28.88 46.14L28.88 54.88L39.18 54.88Q39.38 54.88 39.38 55.13L39.38 60.84Q39.38 61.04 39.18 61.04ZM49.68 61.04L44.02 61.04Q43.82 61.04 43.82 60.79L43.92 26.44Q43.92 26.25 44.12 26.25L54.22 26.25Q56.93 26.25 59.20 27.56Q61.47 28.88 62.83 31.10Q64.18 33.33 64.18 36.13Q64.18 37.96 63.62 39.45Q63.06 40.94 62.32 41.97Q61.57 42.99 60.96 43.48Q63.67 46.48 63.67 50.54L63.72 60.79Q63.72 61.04 63.48 61.04L57.81 61.04Q57.62 61.04 57.62 60.89L57.62 50.54Q57.62 48.73 56.35 47.41Q55.08 46.09 53.22 46.09L49.93 46.09L49.88 60.79Q49.88 61.04 49.68 61.04M54.22 32.23L49.93 32.23L49.93 40.09L54.22 40.09Q55.76 40.09 56.97 38.94Q58.18 37.79 58.18 36.13Q58.18 34.55 57.01 33.39Q55.83 32.23 54.22 32.23ZM76.42 61.52Q73.75 61.52 71.51 60.16Q69.29 58.79 67.96 56.51Q66.63 54.22 66.63 51.49L66.63 49.19Q66.63 48.93 66.87 48.93L72.49 48.93Q72.68 48.93 72.68 49.19L72.68 51.49Q72.68 53.13 73.78 54.31Q74.88 55.49 76.42 55.49Q77.98 55.49 79.08 54.28Q80.18 53.08 80.18 51.49Q80.18 49.66 77.78 48.29Q77.39 48.05 76.77 47.69Q76.15 47.34 75.29 46.88Q74.44 46.41 73.63 45.96Q72.83 45.51 72.07 45.09Q69.34 43.48 68.01 41.05Q66.67 38.62 66.67 35.60Q66.67 32.81 68.04 30.57Q69.41 28.34 71.62 27.04Q73.83 25.73 76.42 25.73Q79.08 25.73 81.30 27.05Q83.52 28.39 84.85 30.62Q86.18 32.84 86.18 35.60L86.18 39.70Q86.18 39.89 85.99 39.89L80.37 39.89Q80.18 39.89 80.18 39.70L80.13 35.60Q80.13 33.84 79.03 32.74Q77.93 31.64 76.42 31.64Q74.88 31.64 73.78 32.81Q72.68 33.98 72.68 35.60Q72.68 37.23 73.38 38.33Q74.07 39.43 75.93 40.43Q76.12 40.53 76.83 40.92Q77.54 41.31 78.41 41.78Q79.27 42.26 79.98 42.64Q80.69 43.02 80.83 43.09Q83.33 44.48 84.78 46.51Q86.23 48.54 86.23 51.49Q86.23 54.35 84.91 56.62Q83.57 58.89 81.35 60.21Q79.13 61.52 76.42 61.52ZM98.95 61.52Q96.29 61.52 94.04 60.16Q91.82 58.79 90.47 56.51Q89.11 54.22 89.11 51.49L89.16 35.64Q89.16 32.86 90.50 30.64Q91.82 28.39 94.07 27.04Q96.31 25.68 98.95 25.68Q101.68 25.68 103.86 27.03Q106.05 28.37 107.39 30.63Q108.72 32.89 108.72 35.64L108.76 51.49Q108.76 54.22 107.45 56.49Q106.10 58.79 103.88 60.16Q101.66 61.52 98.95 61.52M98.95 55.49Q100.46 55.49 101.59 54.26Q102.71 53.03 102.71 51.49L102.66 35.64Q102.66 33.98 101.61 32.84Q100.56 31.69 98.95 31.69Q97.41 31.69 96.31 32.81Q95.21 33.94 95.21 35.64L95.21 51.49Q95.21 53.13 96.31 54.31Q97.41 55.49 98.95 55.49ZM117.97 61.04L112.96 61.04Q112.57 61.04 112.57 60.69L112.52 26.64Q112.52 26.25 112.92 26.25L117.43 26.25L125.88 45.95L125.63 26.64Q125.63 26.25 126.07 26.25L131.03 26.25Q131.32 26.25 131.32 26.64L131.37 60.74Q131.37 61.04 131.13 61.04L126.73 61.04L118.07 42.63L118.43 60.64Q118.43 61.04 117.97 61.04ZM141.16 61.04L136.16 61.04Q135.77 61.04 135.77 60.69L135.72 26.64Q135.72 26.25 136.11 26.25L140.63 26.25L149.07 45.95L148.83 26.64Q148.83 26.25 149.27 26.25L154.22 26.25Q154.52 26.25 154.52 26.64L154.57 60.74Q154.57 61.04 154.32 61.04L149.93 61.04L141.26 42.63L141.63 60.64Q141.63 61.04 141.16 61.04ZM157.23 60.79L163.43 26.44Q163.48 26.25 163.67 26.25L170.92 26.25Q171.12 26.25 171.17 26.44L177.12 60.79Q177.15 61.04 176.93 61.04L171.39 61.04Q171.14 61.04 171.12 60.79L170.58 57.13L163.77 57.13L163.23 60.79Q163.21 61.04 162.99 61.04L157.42 61.04Q157.23 61.04 157.23 60.79M167.53 37.74L167.24 35.89L167.02 37.74L164.77 51.78L169.58 51.78L167.53 37.74ZM188.40 61.52Q185.69 61.52 183.52 60.18Q181.32 58.84 179.99 56.57Q178.66 54.30 178.66 51.49L178.66 35.64Q178.66 32.91 180.00 30.66Q181.32 28.39 183.54 27.04Q185.77 25.68 188.40 25.68Q191.16 25.68 193.38 27.00Q195.61 28.34 196.91 30.59Q198.22 32.84 198.22 35.64L198.22 37.94Q198.22 38.13 197.97 38.13L192.36 38.13Q192.16 38.13 192.16 37.94L192.16 36.04Q192.16 34.13 191.09 32.89Q190.01 31.64 188.40 31.64Q186.96 31.64 185.84 32.84Q184.72 34.03 184.72 35.64L184.72 51.49Q184.72 53.13 185.82 54.31Q186.91 55.49 188.40 55.49Q190.01 55.49 191.09 54.33Q192.16 53.17 192.16 51.49L192.16 49.02L188.67 49.02Q188.40 49.02 188.40 48.78L188.40 43.19Q188.40 42.94 188.67 42.94L198.02 42.94Q198.22 42.94 198.22 43.19L198.22 51.49Q198.22 54.30 196.90 56.57Q195.56 58.84 193.36 60.18Q191.16 61.52 188.40 61.52ZM218.09 61.04L201.93 61.04Q201.73 61.04 201.73 60.79L201.78 26.44Q201.78 26.25 201.98 26.25L218.04 26.25Q218.24 26.25 218.24 26.49L218.24 32.08Q218.24 32.28 218.04 32.28L207.79 32.28L207.79 40.09L218.04 40.09Q218.24 40.09 218.24 40.28L218.29 45.95Q218.29 46.14 218.09 46.14L207.79 46.14L207.79 54.88L218.09 54.88Q218.29 54.88 218.29 55.13L218.29 60.84Q218.29 61.04 218.09 61.04ZM231.23 61.52Q228.56 61.52 226.32 60.16Q224.10 58.79 222.77 56.51Q221.44 54.22 221.44 51.49L221.44 49.19Q221.44 48.93 221.68 48.93L227.29 48.93Q227.49 48.93 227.49 49.19L227.49 51.49Q227.49 53.13 228.59 54.31Q229.69 55.49 231.23 55.49Q232.79 55.49 233.89 54.28Q234.99 53.08 234.99 51.49Q234.99 49.66 232.59 48.29Q232.20 48.05 231.58 47.69Q230.96 47.34 230.10 46.88Q229.25 46.41 228.44 45.96Q227.64 45.51 226.88 45.09Q224.15 43.48 222.81 41.05Q221.48 38.62 221.48 35.60Q221.48 32.81 222.85 30.57Q224.22 28.34 226.43 27.04Q228.64 25.73 231.23 25.73Q233.89 25.73 236.11 27.05Q238.33 28.39 239.66 30.62Q240.99 32.84 240.99 35.60L240.99 39.70Q240.99 39.89 240.80 39.89L235.18 39.89Q234.99 39.89 234.99 39.70L234.94 35.60Q234.94 33.84 233.84 32.74Q232.74 31.64 231.23 31.64Q229.69 31.64 228.59 32.81Q227.49 33.98 227.49 35.60Q227.49 37.23 228.19 38.33Q228.88 39.43 230.74 40.43Q230.93 40.53 231.64 40.92Q232.35 41.31 233.22 41.78Q234.08 42.26 234.79 42.64Q235.50 43.02 235.64 43.09Q238.13 44.48 239.59 46.51Q241.04 48.54 241.04 51.49Q241.04 54.35 239.72 56.62Q238.38 58.89 236.16 60.21Q233.94 61.52 231.23 61.52Z"/></g></g></svg>