<svg xmlns="http://www.w3.org/2000/svg" width="239.469" height="82.094" viewBox="0 0 239.469 82.094">
  <defs>
    <style>
      .cls-1 {
        fill: #ff4040;
        fill-rule: evenodd;
      }
    </style>
  </defs>
  <path id="GOODS" class="cls-1" d="M33.813,239.86h5.7V196.313H18.423v10.26h9.69v10.716c0,2.85,0,6.726-2.052,9.348a8.79,8.79,0,0,1-6.612,3.191,8.061,8.061,0,0,1-6.384-2.849c-1.824-2.394-1.938-5.814-1.938-8.208V181.379c0-2.85,0-5.814,2.166-8.436a8.072,8.072,0,0,1,6.384-2.85,8.371,8.371,0,0,1,6.156,2.28,8.626,8.626,0,0,1,2.28,6.5v3.99h11.4v-3.192c0-7.41-2.736-12.54-5.814-15.618-3.192-3.192-8.208-5.13-14.136-5.13-4.332,0-11.514,1.14-16.074,7.524-3.534,4.9-3.762,9.8-3.762,14.592v40.356c0,3.648.456,9.347,4.1,13.907,3.762,4.674,8.55,5.7,12.654,5.7a18.435,18.435,0,0,0,8.892-1.938,13.425,13.425,0,0,0,5.472-5.358Zm16.509-20.975c0,6.042.456,11.855,5.928,16.985A19.907,19.907,0,0,0,70.272,241a19.906,19.906,0,0,0,14.022-5.13c5.472-5.13,5.928-10.943,5.928-16.985V181.037c0-6.042-.456-11.856-5.928-16.986a19.906,19.906,0,0,0-14.022-5.13,19.907,19.907,0,0,0-14.022,5.13c-5.472,5.13-5.928,10.944-5.928,16.986v37.848Zm28.5,1.71c0,2.394-.228,4.788-2.394,6.954a9.453,9.453,0,0,1-12.312,0c-2.166-2.166-2.394-4.56-2.394-6.954V179.327c0-2.394.228-4.788,2.394-6.954a9.45,9.45,0,0,1,12.312,0c2.166,2.166,2.394,4.56,2.394,6.954V220.6Zm22.1-1.71c0,6.042.456,11.855,5.928,16.985A19.906,19.906,0,0,0,120.866,241a19.907,19.907,0,0,0,14.022-5.13c5.472-5.13,5.928-10.943,5.928-16.985V181.037c0-6.042-.456-11.856-5.928-16.986a19.907,19.907,0,0,0-14.022-5.13,19.906,19.906,0,0,0-14.021,5.13c-5.472,5.13-5.928,10.944-5.928,16.986v37.848Zm28.5,1.71c0,2.394-.228,4.788-2.394,6.954a9.452,9.452,0,0,1-12.311,0c-2.166-2.166-2.394-4.56-2.394-6.954V179.327c0-2.394.228-4.788,2.394-6.954a9.449,9.449,0,0,1,12.311,0c2.166,2.166,2.394,4.56,2.394,6.954V220.6ZM152,160.061v79.8h16.986c4.446,0,11.058-.8,16.074-6.27,4.56-5.015,5.13-10.829,5.13-16.3V182.063c0-3.42-.342-11.856-6.156-17.214-5.016-4.56-11.856-4.788-16.644-4.788H152Zm11.4,11.172h5.814c2.85,0,5.244,0,7.41,2.622a11.649,11.649,0,0,1,2.166,7.41v35.34c0,2.622-.228,6.726-2.622,9.348-2.28,2.394-5.244,2.736-7.638,2.736H163.4V171.233Zm64.213,10.944h11.4v-2.622c0-13.224-7.638-20.634-19.038-20.634-5.244,0-10.032,1.254-13.794,4.9a20.232,20.232,0,0,0-5.928,14.82v2.28c0,3.99.114,7.98,1.71,11.628,2.28,5.358,6.384,7.41,10.488,8.892l8.322,2.964c1.254,0.456,3.99,1.482,5.472,3.534s1.824,5.472,1.824,8.208v2.964c0,2.394-.114,5.7-1.824,7.866-0.912,1.14-2.85,2.849-7.182,2.849a7.807,7.807,0,0,1-6.27-2.621c-1.6-2.052-1.824-5.244-1.824-7.068v-2.166h-11.4V220.6c0,1.026,0,8.55,3.648,13.451,2.622,3.648,7.866,6.954,15.96,6.954,6.612,0,11.856-2.166,14.82-5.244,3.306-3.42,5.472-9.575,5.472-17.669v-2.736c0-5.016-.342-9.576-3.42-13.794-2.964-4.1-6.954-5.586-10.374-6.84l-6.954-2.508c-1.71-.684-3.99-1.6-5.244-3.534-1.482-2.166-1.824-6.156-1.824-8.322,0-2.622.228-5.814,2.394-8.094a7.616,7.616,0,0,1,5.586-2.166,7.206,7.206,0,0,1,6.042,2.622c1.824,2.28,1.938,5.586,1.938,7.3v2.166Z" transform="translate(0 -158.906)"/>
</svg>
