<svg xmlns="http://www.w3.org/2000/svg" width="305.344" height="82.094" viewBox="0 0 305.344 82.094">
  <defs>
    <style>
      .cls-1 {
        fill: #ff4040;
        fill-rule: evenodd;
      }
    </style>
  </defs>
  <path id="HISTORY" class="cls-1" d="M0.184,160.061v79.8h11.4V204.635h15.39V239.86h11.4v-79.8h-11.4v34.314H11.583V160.061H0.184Zm49.56,0v79.8h11.4v-79.8h-11.4Zm49.293,22.116h11.4v-2.622c0-13.224-7.638-20.634-19.038-20.634-5.244,0-10.032,1.254-13.794,4.9a20.233,20.233,0,0,0-5.928,14.82v2.28c0,3.99.114,7.98,1.71,11.628,2.28,5.358,6.384,7.41,10.488,8.892l8.322,2.964c1.254,0.456,3.99,1.482,5.472,3.534s1.824,5.472,1.824,8.208v2.964c0,2.394-.114,5.7-1.824,7.866-0.912,1.14-2.85,2.849-7.182,2.849a7.807,7.807,0,0,1-6.27-2.621c-1.6-2.052-1.824-5.244-1.824-7.068v-2.166h-11.4V220.6c0,1.026,0,8.55,3.648,13.451C77.263,237.694,82.507,241,90.6,241c6.612,0,11.856-2.166,14.82-5.244,3.306-3.42,5.472-9.575,5.472-17.669v-2.736c0-5.016-.342-9.576-3.42-13.794-2.964-4.1-6.954-5.586-10.374-6.84l-6.954-2.508c-1.71-.684-3.99-1.6-5.244-3.534-1.482-2.166-1.824-6.156-1.824-8.322,0-2.622.228-5.814,2.394-8.094a7.616,7.616,0,0,1,5.586-2.166,7.206,7.206,0,0,1,6.042,2.622c1.824,2.28,1.938,5.586,1.938,7.3v2.166Zm19.015-22.116v10.83h14.136V239.86h11.4V170.891h14.136v-10.83H118.052Zm47.58,58.824c0,6.042.456,11.855,5.928,16.985a21.727,21.727,0,0,0,28.043,0c5.472-5.13,5.928-10.943,5.928-16.985V181.037c0-6.042-.456-11.856-5.928-16.986a21.727,21.727,0,0,0-28.043,0c-5.472,5.13-5.928,10.944-5.928,16.986v37.848Zm28.5,1.71c0,2.394-.228,4.788-2.394,6.954a9.452,9.452,0,0,1-12.311,0c-2.166-2.166-2.394-4.56-2.394-6.954V179.327c0-2.394.228-4.788,2.394-6.954a9.449,9.449,0,0,1,12.311,0c2.166,2.166,2.394,4.56,2.394,6.954V220.6Zm22.586-60.534v79.8h11.4V205.433h6.726L245.9,239.86h11.856l-12.54-36.821a15.857,15.857,0,0,0,6.042-4.1c2.394-2.736,4.218-7.524,4.218-12.654v-6.042c0-5.928-1.6-10.716-4.218-13.908-5.358-6.612-13.794-6.27-19.608-6.27H216.717Zm11.4,10.26h5.928c2.394,0,5.13-.228,7.41,2.052a10.63,10.63,0,0,1,2.622,7.3v5.7c0,3.078-.114,5.016-2.394,7.182a9.643,9.643,0,0,1-7.068,2.622h-6.5V170.321Zm77.414-10.26H293.446l-9.69,31.692h-0.684l-9.918-31.692h-12.54l16.758,45.828V239.86h11.4V206.231Z" transform="translate(-0.188 -158.906)"/>
</svg>
