<svg xmlns="http://www.w3.org/2000/svg" width="233.437" height="82" viewBox="0 0 233.437 82">
  <defs>
    <style>
      .cls-1 {
        fill: #ff4040;
        fill-rule: evenodd;
      }
    </style>
  </defs>
  <path id="t-onair.svg" class="cls-1" d="M0.728,59.885c0,6.042.456,11.856,5.928,16.986A19.906,19.906,0,0,0,20.677,82,19.906,19.906,0,0,0,34.7,76.87c5.472-5.13,5.928-10.944,5.928-16.986V22.037c0-6.042-.456-11.856-5.928-16.986A19.906,19.906,0,0,0,20.677-.079,19.907,19.907,0,0,0,6.655,5.051C1.184,10.181.728,16,.728,22.037V59.885Zm28.5,1.71c0,2.394-.228,4.788-2.394,6.954a8.513,8.513,0,0,1-6.156,2.28,8.514,8.514,0,0,1-6.156-2.28c-2.166-2.166-2.394-4.56-2.394-6.954V20.327c0-2.394.228-4.788,2.394-6.954a8.514,8.514,0,0,1,6.156-2.28,8.513,8.513,0,0,1,6.156,2.28c2.166,2.166,2.394,4.56,2.394,6.954V61.595ZM51.812,1.061v79.8h11.4V30.7L82.25,80.86h11.4V1.061H82.25V51.221L63.212,1.061h-11.4Zm110.816,79.8-17.442-79.8H135.154l-17.442,79.8h11.4l3.762-17.1h14.592l3.762,17.1h11.4ZM146.1,53.615H134.014l5.928-30.323ZM170.629,1.061v79.8h11.4V1.061h-11.4Zm22.5,0v79.8h11.4V46.433h6.726L222.316,80.86h11.856l-12.54-36.821a15.857,15.857,0,0,0,6.042-4.1c2.394-2.736,4.218-7.524,4.218-12.654V21.239c0-5.928-1.6-10.716-4.218-13.908-5.358-6.612-13.794-6.27-19.608-6.27H193.132Zm11.4,10.26h5.928c2.394,0,5.13-.228,7.41,2.052a10.629,10.629,0,0,1,2.622,7.3v5.7c0,3.078-.114,5.016-2.394,7.182a9.643,9.643,0,0,1-7.068,2.622h-6.5V11.321Z" transform="translate(-0.719)"/>
</svg>
