<svg xmlns="http://www.w3.org/2000/svg" width="425.469" height="82.09" viewBox="0 0 425.469 82.09">
  <defs>
    <style>
      .cls-1 {
        fill: #fff;
        fill-rule: evenodd;
      }
    </style>
  </defs>
  <path id="CHARACTER" class="cls-1" d="M26.517,3006.75H37.575v-5.47a18.973,18.973,0,0,0-5.13-13.23c-3.42-3.3-9.006-5.13-13.794-5.13a20.211,20.211,0,0,0-13,4.68c-5.13,4.44-5.814,10.37-5.814,15.61v41.38c0,4.11-.114,9.58,3.99,14.37,2.508,2.96,6.84,6.04,14.364,6.04,7.866,0,12.54-2.74,14.934-5.36,2.052-2.16,4.788-6.72,4.788-14.59v-3.31h-11.4v2.85c0,3.88-1.026,5.7-1.6,6.5a7.94,7.94,0,0,1-6.384,2.74,6.9,6.9,0,0,1-5.814-2.85c-1.482-2.05-1.482-4.45-1.482-7.07v-39.33c0-2.73.114-5.58,1.938-7.86a7.307,7.307,0,0,1,5.928-2.63,6.951,6.951,0,0,1,5.928,2.85,9.937,9.937,0,0,1,1.482,5.25v4.56Zm21.694-22.69v79.8h11.4v-35.23H75v35.23H86.4v-79.8H75v34.31H59.611v-34.31h-11.4Zm91.444,79.8-17.442-79.8H112.181l-17.442,79.8h11.4l3.762-17.1h14.592l3.762,17.1h11.4Zm-16.53-27.25H111.041l5.928-30.32Zm24.542-52.55v79.8h11.4v-34.43h6.726l11.058,34.43h11.856l-12.54-36.82a15.875,15.875,0,0,0,6.042-4.11c2.394-2.73,4.218-7.52,4.218-12.65v-6.04c0-5.93-1.6-10.72-4.218-13.91-5.358-6.61-13.794-6.27-19.608-6.27H147.667Zm11.4,10.26H165c2.394,0,5.13-.23,7.41,2.05a10.652,10.652,0,0,1,2.622,7.3v5.7c0,3.08-.114,5.02-2.394,7.18a9.649,9.649,0,0,1-7.068,2.62h-6.5v-24.85Zm81.233,69.54-17.442-79.8H212.826l-17.442,79.8h11.4l3.762-17.1h14.592l3.762,17.1h11.4Zm-16.53-27.25H211.686l5.928-30.32Zm49.622-29.86H284.45v-5.47a18.972,18.972,0,0,0-5.13-13.23c-3.42-3.3-9.006-5.13-13.794-5.13a20.212,20.212,0,0,0-13,4.68c-5.13,4.44-5.814,10.37-5.814,15.61v41.38c0,4.11-.114,9.58,3.99,14.37,2.508,2.96,6.84,6.04,14.364,6.04,7.866,0,12.54-2.74,14.934-5.36,2.052-2.16,4.788-6.72,4.788-14.59v-3.31h-11.4v2.85c0,3.88-1.026,5.7-1.6,6.5a7.94,7.94,0,0,1-6.384,2.74,6.9,6.9,0,0,1-5.814-2.85c-1.482-2.05-1.482-4.45-1.482-7.07v-39.33c0-2.73.114-5.58,1.938-7.86a7.307,7.307,0,0,1,5.928-2.63,6.951,6.951,0,0,1,5.928,2.85,9.936,9.936,0,0,1,1.482,5.25v4.56Zm19.209-22.69v10.83h14.136v68.97h11.4v-68.97h14.136v-10.83H292.6Zm48.161,79.8h34.2v-10.83h-22.8v-24.4H372v-10.26H352.162v-23.48h22.457v-10.83H340.762v79.8Zm43.655-79.8v79.8h11.4v-34.43h6.726l11.058,34.43h11.856l-12.54-36.82a15.875,15.875,0,0,0,6.042-4.11c2.394-2.73,4.218-7.52,4.218-12.65v-6.04c0-5.93-1.6-10.72-4.218-13.91-5.358-6.61-13.794-6.27-19.608-6.27H384.417Zm11.4,10.26h5.928c2.394,0,5.13-.23,7.41,2.05a10.652,10.652,0,0,1,2.622,7.3v5.7c0,3.08-.114,5.02-2.394,7.18a9.649,9.649,0,0,1-7.068,2.62h-6.5v-24.85Z" transform="translate(0 -2982.91)"/>
</svg>
