<svg xmlns="http://www.w3.org/2000/svg" width="356.125" height="82.094" viewBox="0 0 356.125 82.094">
  <defs>
    <style>
      .cls-1 {
        fill: #ff4040;
        fill-rule: evenodd;
      }
    </style>
  </defs>
  <path id="KEYWORD" class="cls-1" d="M0.184,160.061v79.8h11.4V216.491l7.068-12.312L32.217,239.86H44.643L25.491,192.779l16.188-32.718H29.709L11.583,198.479V160.061H0.184Zm53.35,79.8h34.2V229.031h-22.8v-24.4H84.769v-10.26H64.933V170.891H87.391v-10.83H53.534v79.8Zm85.823-79.8H127.273l-9.69,31.692H116.9l-9.918-31.692H94.441L111.2,205.889V239.86h11.4V206.231Zm5.7,0,12.54,79.8h10.26l9.12-51.527h0.8l9.119,51.527h10.26l12.54-79.8H197.608l-6.156,49.7h-0.684l-9.12-49.7H173.1l-9.12,49.7h-0.456l-6.384-49.7H145.055Zm71.7,58.824c0,6.042.456,11.855,5.928,16.985a21.727,21.727,0,0,0,28.043,0c5.472-5.13,5.928-10.943,5.928-16.985V181.037c0-6.042-.456-11.856-5.928-16.986a21.727,21.727,0,0,0-28.043,0c-5.472,5.13-5.928,10.944-5.928,16.986v37.848Zm28.5,1.71c0,2.394-.228,4.788-2.394,6.954a9.454,9.454,0,0,1-12.312,0c-2.166-2.166-2.394-4.56-2.394-6.954V179.327c0-2.394.228-4.788,2.394-6.954a9.451,9.451,0,0,1,12.312,0c2.166,2.166,2.394,4.56,2.394,6.954V220.6Zm22.585-60.534v79.8h11.4V205.433h6.725l11.058,34.427h11.856l-12.54-36.821a15.857,15.857,0,0,0,6.042-4.1c2.394-2.736,4.218-7.524,4.218-12.654v-6.042c0-5.928-1.6-10.716-4.218-13.908-5.358-6.612-13.794-6.27-19.608-6.27H267.845Zm11.4,10.26h5.927c2.394,0,5.13-.228,7.41,2.052a10.63,10.63,0,0,1,2.622,7.3v5.7c0,3.078-.114,5.016-2.394,7.182a9.643,9.643,0,0,1-7.068,2.622h-6.5V170.321Zm38.881-10.26v79.8h16.986c4.446,0,11.058-.8,16.074-6.27,4.56-5.015,5.13-10.829,5.13-16.3V182.063c0-3.42-.342-11.856-6.156-17.214-5.016-4.56-11.856-4.788-16.644-4.788h-15.39Zm11.4,11.172h5.814c2.85,0,5.244,0,7.41,2.622a11.649,11.649,0,0,1,2.166,7.41v35.34c0,2.622-.228,6.726-2.622,9.348-2.28,2.394-5.244,2.736-7.638,2.736h-5.13V171.233Z" transform="translate(-0.188 -158.906)"/>
</svg>
