<svg xmlns="http://www.w3.org/2000/svg" width="205.5" height="82.09" viewBox="0 0 205.5 82.09">
  <defs>
    <style>
      .cls-1 {
        fill: #fff;
        fill-rule: evenodd;
      }
    </style>
  </defs>
  <path id="t-news.svg" class="cls-1" d="M0.184,1280.06v79.8h11.4V1309.7l19.038,50.16h11.4v-79.8h-11.4v50.16l-19.038-50.16H0.184Zm53.663,79.8h34.2v-10.83h-22.8v-24.4H85.082v-10.26H65.246v-23.48H87.7v-10.83H53.847v79.8Zm41.17-79.8,12.54,79.8h10.26l9.12-51.53h0.8l9.12,51.53h10.259l12.54-79.8H147.569l-6.155,49.7H140.73l-9.12-49.7h-8.55l-9.12,49.7h-0.456l-6.384-49.7H95.016Zm98.814,22.12h11.4v-2.62c0-13.23-7.638-20.64-19.038-20.64-5.244,0-10.032,1.26-13.794,4.9a20.25,20.25,0,0,0-5.928,14.82v2.28c0,3.99.114,7.98,1.71,11.63,2.28,5.36,6.384,7.41,10.488,8.89l8.322,2.97c1.254,0.45,3.99,1.48,5.472,3.53s1.824,5.47,1.824,8.21v2.96c0,2.4-.114,5.7-1.824,7.87-0.912,1.14-2.85,2.85-7.182,2.85a7.815,7.815,0,0,1-6.27-2.62c-1.6-2.06-1.824-5.25-1.824-7.07v-2.17h-11.4v2.62c0,1.03,0,8.55,3.648,13.46,2.622,3.64,7.866,6.95,15.96,6.95,6.612,0,11.856-2.17,14.82-5.24,3.306-3.42,5.472-9.58,5.472-17.67v-2.74c0-5.02-.342-9.58-3.42-13.79-2.964-4.11-6.954-5.59-10.374-6.84l-6.954-2.51c-1.71-.68-3.99-1.6-5.244-3.53-1.482-2.17-1.824-6.16-1.824-8.33,0-2.62.228-5.81,2.394-8.09a7.639,7.639,0,0,1,5.586-2.17,7.191,7.191,0,0,1,6.042,2.63c1.824,2.28,1.938,5.58,1.938,7.29v2.17Z" transform="translate(-0.188 -1278.91)"/>
</svg>
