<svg xmlns="http://www.w3.org/2000/svg" width="233" height="82.094" viewBox="0 0 233 82.094">
  <defs>
    <style>
      .cls-1 {
        fill: #ff4040;
        fill-rule: evenodd;
      }
    </style>
  </defs>
  <path id="STORY" class="cls-1" d="M26.517,182.177h11.4v-2.622c0-13.224-7.638-20.634-19.038-20.634-5.244,0-10.032,1.254-13.794,4.9a20.232,20.232,0,0,0-5.928,14.82v2.28c0,3.99.114,7.98,1.71,11.628,2.28,5.358,6.384,7.41,10.488,8.892l8.322,2.964c1.254,0.456,3.99,1.482,5.472,3.534s1.824,5.472,1.824,8.208v2.964c0,2.394-.114,5.7-1.824,7.866-0.912,1.14-2.85,2.849-7.182,2.849a7.807,7.807,0,0,1-6.27-2.621c-1.6-2.052-1.824-5.244-1.824-7.068v-2.166h-11.4V220.6c0,1.026,0,8.55,3.648,13.451C4.743,237.694,9.987,241,18.081,241c6.612,0,11.856-2.166,14.82-5.244,3.306-3.42,5.472-9.575,5.472-17.669v-2.736c0-5.016-.342-9.576-3.42-13.794-2.964-4.1-6.954-5.586-10.374-6.84l-6.954-2.508c-1.71-.684-3.99-1.6-5.244-3.534-1.482-2.166-1.824-6.156-1.824-8.322,0-2.622.228-5.814,2.394-8.094a7.616,7.616,0,0,1,5.586-2.166,7.206,7.206,0,0,1,6.042,2.622c1.824,2.28,1.938,5.586,1.938,7.3v2.166Zm19.015-22.116v10.83H59.668V239.86h11.4V170.891H85.2v-10.83H45.532Zm47.58,58.824c0,6.042.456,11.855,5.928,16.985A19.908,19.908,0,0,0,113.062,241a19.9,19.9,0,0,0,14.021-5.13c5.472-5.13,5.928-10.943,5.928-16.985V181.037c0-6.042-.456-11.856-5.928-16.986a19.9,19.9,0,0,0-14.021-5.13,19.908,19.908,0,0,0-14.022,5.13c-5.472,5.13-5.928,10.944-5.928,16.986v37.848Zm28.5,1.71c0,2.394-.228,4.788-2.394,6.954a9.454,9.454,0,0,1-12.312,0c-2.166-2.166-2.394-4.56-2.394-6.954V179.327c0-2.394.228-4.788,2.394-6.954a9.451,9.451,0,0,1,12.312,0c2.166,2.166,2.394,4.56,2.394,6.954V220.6ZM144.2,160.061v79.8h11.4V205.433h6.725L173.38,239.86h11.856L172.7,203.039a15.857,15.857,0,0,0,6.042-4.1c2.394-2.736,4.218-7.524,4.218-12.654v-6.042c0-5.928-1.6-10.716-4.218-13.908-5.358-6.612-13.794-6.27-19.608-6.27H144.2Zm11.4,10.26h5.927c2.394,0,5.13-.228,7.41,2.052a10.63,10.63,0,0,1,2.622,7.3v5.7c0,3.078-.114,5.016-2.394,7.182a9.643,9.643,0,0,1-7.068,2.622h-6.5V170.321Zm77.413-10.26H220.926l-9.69,31.692h-0.684l-9.918-31.692H188.1l16.757,45.828V239.86h11.4V206.231Z" transform="translate(0 -158.906)"/>
</svg>
