<svg xmlns="http://www.w3.org/2000/svg" width="107.91" height="107.938" viewBox="0 0 107.91 107.938">
  <defs>
    <style>
      .cls-1 {
        fill: #fff;
        fill-rule: evenodd;
      }
    </style>
  </defs>
  <path id="icon_play.svg" class="cls-1" d="M1128.3,119.09l3.75-1,3.38,2,0.37-3,3-.8-0.67,5.407,8.56,5.066-4.49,1.2-4.48-2.86-0.52,4.2-3,.8,0.83-6.719Zm-16.6-78.18-3.75,1-3.38-2-0.37,3-3,.8,0.67-5.407-8.56-5.066,4.49-1.205,4.48,2.86,0.52-4.2,3-.8-0.83,6.719Zm10.41-.975,1.99,0.256,0.71-5.495,1.17,0.151a3.473,3.473,0,0,0,2.88-.737,4.213,4.213,0,0,0,1.21-2.707l0.05-.4a4.247,4.247,0,0,0-.6-3.3,3.617,3.617,0,0,0-2.66-1.271l-2.95-.382Zm3.55-11.844,0.7,0.09a2.285,2.285,0,0,1,1.5.557,1.891,1.891,0,0,1,.32,1.676l-0.11.912a1.9,1.9,0,0,1-.56,1.38,1.733,1.733,0,0,1-1.4.344l-1.07-.138Zm9.81,0.086-4.71,13.181,5.88,2.1,0.64-1.789-3.99-1.426,4.07-11.392Zm9.24,20.123,4.91-13.463-1.48-.943-10.09,10.185,1.69,1.071,2.17-2.18,2.16,1.371-1.05,2.887Zm0.11-5.59-1.79-1.135,3.73-3.936Zm15.07,0.685-1.54-1.454-5.05,2.881-0.09-.082,2.55-5.241-1.6-1.509-3.38,7.869L1146.7,50.2l1.45,1.372,4.05-4.294Zm5.88,7.734-1.67.909,1.19,2.178L1154.66,60l0.96,1.756,10.63-5.788,1.18,2.178,1.67-.909Zm5.18,10.654-13.44,3.91,0.56,1.921,5.8-1.687,0.33,1.133-5.26,3.55,0.58,2,5.59-3.917a2.753,2.753,0,0,0,.99.817,3.511,3.511,0,0,0,2.34.091l1.01-.3a3.824,3.824,0,0,0,2.14-1.392c0.85-1.227.38-2.632,0.1-3.612Zm-1.17,2.424,0.29,1a1.621,1.621,0,0,1,.02,1.349,1.869,1.869,0,0,1-1.1.8l-0.96.279a1.452,1.452,0,0,1-1.33-.052,1.727,1.727,0,0,1-.79-1.062l-0.31-1.1Zm-9.64,17.7,13.83-3.75-0.08-1.758-14.14-2.362,0.1,2,3.03,0.51,0.13,2.557-2.97.808Zm4.63-3.133-0.1-2.117,5.36,0.775Zm8.98,6.516-13.9-1.613-0.23,1.987,13.9,1.613Zm-0.95,6.436-13.49-3.749-1.67,6.013,1.83,0.509,1.14-4.085,11.66,3.24Zm-15.97,4.147-2.75,5.333,1.69,0.871,1.83-3.555,3.81,1.962-1.6,3.094,1.6,0.825,1.6-3.093,3.66,1.889-1.81,3.5,1.69,0.871,2.72-5.28Zm6.95,15.911-10.81-8.9-1.27,1.544,4.66,3.838-0.75.911-5.9-2.34-1.32,1.605,6.39,2.408a2.812,2.812,0,0,0-.12,1.275,3.51,3.51,0,0,0,1.24,1.983l0.82,0.673a3.836,3.836,0,0,0,2.36.98c1.49,0.011,2.38-1.17,3.03-1.957Zm-2.66.4-0.66.8a1.627,1.627,0,0,1-1.11.775,1.881,1.881,0,0,1-1.28-.458l-0.77-.636a1.447,1.447,0,0,1-.71-1.125,1.723,1.723,0,0,1,.44-1.25l0.72-.88Zm-42.7,7.9-1.98-.231-0.64,5.5-1.17-.135a3.455,3.455,0,0,0-2.87.774,4.222,4.222,0,0,0-1.18,2.722l-0.05.4a4.293,4.293,0,0,0,.65,3.3,3.616,3.616,0,0,0,2.67,1.236l2.96,0.344Zm-3.39,11.888-0.69-.081a2.262,2.262,0,0,1-1.51-.537,1.865,1.865,0,0,1-.35-1.671l0.1-.914a1.87,1.87,0,0,1,.55-1.387,1.719,1.719,0,0,1,1.39-.362l1.07,0.124Zm-9.79.054,4.53-13.244-5.9-2.019-0.62,1.8,4.01,1.372-3.91,11.447Zm-9.52-20-4.73,13.534,1.5,0.923,9.94-10.327-1.7-1.049-2.13,2.211-2.19-1.342,1.01-2.9Zm-0.03,5.593,1.8,1.111-3.67,3.989Zm-15.09-.484,1.57,1.432,5.01-2.948,0.09,0.081-2.48,5.274,1.62,1.487,3.27-7.913,4.03-4.392-1.48-1.352-3.98,4.348Zm-5.97-7.646,1.66-.933-1.22-2.16,10.54-5.936-0.98-1.743-10.54,5.936-1.22-2.16-1.65.932Zm-5.32-10.578,13.39-4.091-0.59-1.912-5.77,1.765-0.35-1.128,5.21-3.619-0.61-1.989-5.53,3.991a2.822,2.822,0,0,0-1-.8,3.514,3.514,0,0,0-2.34-.059l-1.01.31a3.8,3.8,0,0,0-2.12,1.42c-0.83,1.238-.34,2.635-0.04,3.61Zm1.14-2.438-0.31-.994a1.616,1.616,0,0,1-.03-1.348,1.847,1.847,0,0,1,1.09-.813l0.95-.293a1.454,1.454,0,0,1,1.33.033,1.676,1.676,0,0,1,.8,1.051l0.34,1.09Zm9.38-17.842-13.78,3.94,0.12,1.756,14.16,2.167-0.13-2-3.03-.469-0.16-2.555,2.95-.849Zm-4.58,3.2,0.13,2.116-5.38-.7Zm-9.07-6.381,13.93,1.42,0.2-1.99-13.93-1.42ZM1067.04,69l13.54,3.568,1.59-6.037-1.83-.484-1.08,4.1-11.71-3.083Zm15.92-4.372,2.68-5.37-1.71-.848-1.78,3.58-3.83-1.91,1.55-3.114-1.61-.8-1.55,3.114-3.69-1.839,1.76-3.526-1.7-.848-2.65,5.316Zm-7.16-15.818,10.92,8.748L1087.97,56l-4.71-3.774L1084,51.3l5.92,2.26,1.3-1.623-6.41-2.319a2.98,2.98,0,0,0,.1-1.277,3.568,3.568,0,0,0-1.27-1.965l-0.83-.662a3.809,3.809,0,0,0-2.37-.947c-1.49.009-2.37,1.2-3.01,2Zm2.65-.436,0.65-.812a1.612,1.612,0,0,1,1.1-.79,1.854,1.854,0,0,1,1.28.441l0.78,0.625a1.433,1.433,0,0,1,.72,1.115,1.682,1.682,0,0,1-.41,1.255l-0.72.89Z" transform="translate(-1066.06 -26.063)"/>
</svg>
