<svg xmlns="http://www.w3.org/2000/svg" width="220.438" height="82.094" viewBox="0 0 220.438 82.094">
  <defs>
    <style>
      .cls-1 {
        fill: #fff;
        fill-rule: evenodd;
      }
    </style>
  </defs>
  <path id="MOVIE" class="cls-1" d="M0.184,719.86h11.4V669.929h0.57l11.97,36.024h6.042l11.97-36.024H42.7V719.86H54.1v-79.8H42.7l-14.934,44H27.315l-15.732-44H0.184v79.8Zm65.23-20.975c0,6.042.456,11.855,5.928,16.985A19.907,19.907,0,0,0,85.363,721a19.906,19.906,0,0,0,14.022-5.13c5.472-5.13,5.928-10.943,5.928-16.985V661.037c0-6.042-.456-11.856-5.928-16.986a19.906,19.906,0,0,0-14.022-5.13,19.907,19.907,0,0,0-14.022,5.13c-5.472,5.13-5.928,10.944-5.928,16.986v37.848Zm28.5,1.71c0,2.394-.228,4.788-2.394,6.954a9.453,9.453,0,0,1-12.312,0c-2.166-2.166-2.394-4.56-2.394-6.954V659.327c0-2.394.228-4.788,2.394-6.954a9.45,9.45,0,0,1,12.312,0c2.166,2.166,2.394,4.56,2.394,6.954V700.6Zm61.88-60.534H143.824l-9.576,55.176h-0.456l-9.234-55.176h-12.54l16.872,79.8h10.032Zm8.141,0v79.8h11.4v-79.8h-11.4Zm22.5,79.8h34.2V709.031h-22.8v-24.4h19.835v-10.26H197.838V650.891H220.3v-10.83H186.438v79.8Z" transform="translate(-0.188 -638.906)"/>
</svg>
