<svg xmlns="http://www.w3.org/2000/svg" width="461.375" height="82.09" viewBox="0 0 461.375 82.09">
  <defs>
    <style>
      .cls-1 {
        fill: #fff;
        fill-rule: evenodd;
      }
    </style>
  </defs>
  <path id="STAFF_CAST" data-name="STAFF&amp;CAST" class="cls-1" d="M27.517,2046.18h11.4v-2.62c0-13.23-7.638-20.64-19.038-20.64-5.244,0-10.032,1.26-13.794,4.9a20.25,20.25,0,0,0-5.928,14.82v2.28c0,3.99.114,7.98,1.71,11.63,2.28,5.36,6.384,7.41,10.488,8.89l8.322,2.97c1.254,0.45,3.99,1.48,5.472,3.53s1.824,5.47,1.824,8.21v2.96c0,2.4-.114,5.7-1.824,7.87-0.912,1.14-2.85,2.85-7.182,2.85a7.815,7.815,0,0,1-6.27-2.62c-1.6-2.06-1.824-5.25-1.824-7.07v-2.17h-11.4v2.62c0,1.03,0,8.55,3.648,13.46,2.622,3.64,7.866,6.95,15.96,6.95,6.612,0,11.856-2.17,14.82-5.24,3.306-3.42,5.472-9.58,5.472-17.67v-2.74c0-5.02-.342-9.58-3.42-13.79-2.964-4.11-6.954-5.59-10.374-6.84l-6.954-2.51c-1.71-.68-3.99-1.6-5.244-3.53-1.482-2.17-1.824-6.16-1.824-8.33,0-2.62.228-5.81,2.394-8.09a7.638,7.638,0,0,1,5.586-2.17,7.191,7.191,0,0,1,6.042,2.63c1.824,2.28,1.938,5.58,1.938,7.29v2.17Zm19.015-22.12v10.83H60.668v68.97h11.4v-68.97H86.2v-10.83H46.532Zm82.68,79.8-17.442-79.8H101.738L84.3,2103.86H95.7l3.762-17.1H114.05l3.762,17.1h11.4Zm-16.53-27.25H100.6l5.928-30.32Zm24.543,27.25h11.4v-34.2H169.03v-10.83H148.624v-23.94H171.88v-10.83H137.225v79.8Zm43.281,0h11.4v-34.2h20.406v-10.83H191.906v-23.94h23.256v-10.83H180.506v79.8ZM262.4,2071.6a39.646,39.646,0,0,1-1.482,5.36,13.839,13.839,0,0,1-2.394,4.9l-12.881-20.41a59.8,59.8,0,0,0,9.233-9.34,22.564,22.564,0,0,0,4.788-13.57c0-6.04-2.508-9.92-6.156-12.43a20.611,20.611,0,0,0-11.741-3.19c-4.218,0-9.12.69-13.11,4.68-3.42,3.3-4.674,7.29-4.674,12.19a26.458,26.458,0,0,0,3.762,14.14c1.368,2.51,3.192,5.24,4.446,7.07a45.578,45.578,0,0,0-9.348,9.46c-2.85,4.22-3.99,9.69-3.99,14.82a18.859,18.859,0,0,0,4.788,13.22c3.876,4.56,8.55,6.5,15.618,6.5a26.592,26.592,0,0,0,12.2-2.74,24.053,24.053,0,0,0,5.471-4.56l3.876,6.16H273l-8.55-13.45a22.707,22.707,0,0,0,4.674-7.53,53.937,53.937,0,0,0,2.736-8.66ZM251,2089.95a8.813,8.813,0,0,1-3.42,2.97,12.421,12.421,0,0,1-6.84,1.82c-3.078,0-6.27-.68-8.55-3.99a11.326,11.326,0,0,1-1.938-6.73,15.21,15.21,0,0,1,2.622-9.23,29.41,29.41,0,0,1,5.244-5.47Zm-11.856-38.53a20.3,20.3,0,0,1-4.218-11.74c0-1.6.114-4.1,2.052-5.93a6.8,6.8,0,0,1,4.9-1.82,6.586,6.586,0,0,1,4.9,1.82,7.361,7.361,0,0,1,1.938,5.36,13.884,13.884,0,0,1-1.482,6.04,23.136,23.136,0,0,1-6.384,8.55Zm67.4-4.67H317.6v-5.47a18.972,18.972,0,0,0-5.13-13.23c-3.42-3.3-9-5.13-13.793-5.13a20.212,20.212,0,0,0-13,4.68c-5.13,4.44-5.814,10.37-5.814,15.61v41.38c0,4.11-.114,9.58,3.99,14.37,2.508,2.96,6.84,6.04,14.364,6.04,7.866,0,12.539-2.74,14.933-5.36,2.052-2.16,4.788-6.72,4.788-14.59v-3.31h-11.4v2.85c0,3.88-1.026,5.7-1.6,6.5a7.94,7.94,0,0,1-6.384,2.74,6.9,6.9,0,0,1-5.814-2.85c-1.482-2.05-1.482-4.45-1.482-7.07v-39.33c0-2.73.114-5.58,1.938-7.86a7.307,7.307,0,0,1,5.928-2.63,6.951,6.951,0,0,1,5.928,2.85,9.936,9.936,0,0,1,1.482,5.25v4.56Zm62.482,57.11-17.441-79.8H341.553l-17.442,79.8h11.4l3.762-17.1h14.592l3.762,17.1h11.4ZM352.5,2076.61H340.413l5.928-30.32Zm50.18-30.43h11.4v-2.62c0-13.23-7.638-20.64-19.038-20.64-5.244,0-10.032,1.26-13.794,4.9a20.249,20.249,0,0,0-5.927,14.82v2.28c0,3.99.114,7.98,1.709,11.63,2.28,5.36,6.384,7.41,10.488,8.89l8.322,2.97c1.254,0.45,3.99,1.48,5.472,3.53s1.824,5.47,1.824,8.21v2.96c0,2.4-.114,5.7-1.824,7.87-0.912,1.14-2.85,2.85-7.182,2.85a7.815,7.815,0,0,1-6.27-2.62c-1.6-2.06-1.824-5.25-1.824-7.07v-2.17h-11.4v2.62c0,1.03,0,8.55,3.647,13.46,2.622,3.64,7.866,6.95,15.96,6.95,6.612,0,11.856-2.17,14.82-5.24,3.306-3.42,5.472-9.58,5.472-17.67v-2.74c0-5.02-.342-9.58-3.42-13.79-2.964-4.11-6.954-5.59-10.374-6.84l-6.954-2.51c-1.71-.68-3.99-1.6-5.244-3.53-1.482-2.17-1.824-6.16-1.824-8.33,0-2.62.228-5.81,2.394-8.09a7.639,7.639,0,0,1,5.586-2.17,7.191,7.191,0,0,1,6.042,2.63c1.824,2.28,1.938,5.58,1.938,7.29v2.17Zm19.015-22.12v10.83h14.136v68.97h11.4v-68.97h14.136v-10.83H421.692Z" transform="translate(0 -2022.91)"/>
</svg>
